<mxfile host="app.diagrams.net" modified="2021-08-12T07:13:43.668Z" agent="5.0 (Windows)" etag="n14UxY5HIj2TwbdLUGRF" version="14.9.6" type="github">
  <diagram id="lPx45hQtR63oMfoRhNOc" name="Page-1">
    <mxGraphModel dx="1044" dy="752" grid="1" gridSize="10" guides="1" tooltips="1" connect="1" arrows="1" fold="1" page="1" pageScale="1" pageWidth="827" pageHeight="1169" math="0" shadow="0">
      <root>
        <mxCell id="0" />
        <mxCell id="1" parent="0" />
        <mxCell id="Rqjnc4vH8GLWkwJb9Xeg-27" style="edgeStyle=orthogonalEdgeStyle;rounded=0;orthogonalLoop=1;jettySize=auto;html=1;entryX=0.5;entryY=0;entryDx=0;entryDy=0;fontSize=16;" edge="1" parent="1" source="Rqjnc4vH8GLWkwJb9Xeg-16" target="Rqjnc4vH8GLWkwJb9Xeg-21">
          <mxGeometry relative="1" as="geometry" />
        </mxCell>
        <mxCell id="Rqjnc4vH8GLWkwJb9Xeg-16" value="" style="rounded=1;whiteSpace=wrap;html=1;dashed=1;fillColor=#d5e8d4;strokeColor=#82b366;" vertex="1" parent="1">
          <mxGeometry x="120" y="200" width="540" height="140" as="geometry" />
        </mxCell>
        <mxCell id="Rqjnc4vH8GLWkwJb9Xeg-41" style="edgeStyle=orthogonalEdgeStyle;shape=link;rounded=0;orthogonalLoop=1;jettySize=auto;html=1;fontSize=16;" edge="1" parent="1" source="Rqjnc4vH8GLWkwJb9Xeg-11" target="Rqjnc4vH8GLWkwJb9Xeg-9">
          <mxGeometry relative="1" as="geometry" />
        </mxCell>
        <mxCell id="Rqjnc4vH8GLWkwJb9Xeg-11" value="" style="outlineConnect=0;fontColor=#232F3E;gradientColor=none;fillColor=#5A30B5;strokeColor=none;dashed=0;verticalLabelPosition=bottom;verticalAlign=top;align=center;html=1;fontSize=12;fontStyle=0;aspect=fixed;pointerEvents=1;shape=mxgraph.aws4.customer_gateway;" vertex="1" parent="1">
          <mxGeometry x="198" y="250" width="80" height="80" as="geometry" />
        </mxCell>
        <mxCell id="Rqjnc4vH8GLWkwJb9Xeg-9" value="" style="outlineConnect=0;fontColor=#232F3E;gradientColor=none;fillColor=#5A30B5;strokeColor=none;dashed=0;verticalLabelPosition=bottom;verticalAlign=top;align=center;html=1;fontSize=12;fontStyle=0;aspect=fixed;pointerEvents=1;shape=mxgraph.aws4.customer_gateway;" vertex="1" parent="1">
          <mxGeometry x="480" y="250" width="80" height="80" as="geometry" />
        </mxCell>
        <mxCell id="Rqjnc4vH8GLWkwJb9Xeg-28" style="edgeStyle=orthogonalEdgeStyle;rounded=0;orthogonalLoop=1;jettySize=auto;html=1;entryX=0.489;entryY=-0.007;entryDx=0;entryDy=0;entryPerimeter=0;fontSize=16;" edge="1" parent="1" source="Rqjnc4vH8GLWkwJb9Xeg-17" target="Rqjnc4vH8GLWkwJb9Xeg-16">
          <mxGeometry relative="1" as="geometry" />
        </mxCell>
        <mxCell id="Rqjnc4vH8GLWkwJb9Xeg-17" value="" style="rounded=1;whiteSpace=wrap;html=1;dashed=1;fillColor=#d5e8d4;strokeColor=#82b366;" vertex="1" parent="1">
          <mxGeometry x="120" y="25" width="530" height="135" as="geometry" />
        </mxCell>
        <mxCell id="Rqjnc4vH8GLWkwJb9Xeg-4" value="" style="outlineConnect=0;fontColor=#232F3E;gradientColor=none;fillColor=#5A30B5;strokeColor=none;dashed=0;verticalLabelPosition=bottom;verticalAlign=top;align=center;html=1;fontSize=12;fontStyle=0;aspect=fixed;pointerEvents=1;shape=mxgraph.aws4.customer_gateway;" vertex="1" parent="1">
          <mxGeometry x="340" y="70" width="80" height="80" as="geometry" />
        </mxCell>
        <mxCell id="Rqjnc4vH8GLWkwJb9Xeg-18" value="核心（交换机）" style="text;html=1;strokeColor=none;fillColor=none;align=center;verticalAlign=middle;whiteSpace=wrap;rounded=0;dashed=1;fontSize=16;" vertex="1" parent="1">
          <mxGeometry x="310" y="32" width="132" height="20" as="geometry" />
        </mxCell>
        <mxCell id="Rqjnc4vH8GLWkwJb9Xeg-20" value="汇聚交换机" style="text;html=1;strokeColor=none;fillColor=none;align=center;verticalAlign=middle;whiteSpace=wrap;rounded=0;dashed=1;fontSize=16;" vertex="1" parent="1">
          <mxGeometry x="325" y="220" width="105" height="20" as="geometry" />
        </mxCell>
        <mxCell id="Rqjnc4vH8GLWkwJb9Xeg-30" style="edgeStyle=orthogonalEdgeStyle;rounded=0;orthogonalLoop=1;jettySize=auto;html=1;fontSize=16;" edge="1" parent="1" source="Rqjnc4vH8GLWkwJb9Xeg-21" target="Rqjnc4vH8GLWkwJb9Xeg-29">
          <mxGeometry relative="1" as="geometry" />
        </mxCell>
        <mxCell id="Rqjnc4vH8GLWkwJb9Xeg-21" value="" style="rounded=1;whiteSpace=wrap;html=1;dashed=1;fontSize=16;fillColor=#d5e8d4;strokeColor=#82b366;" vertex="1" parent="1">
          <mxGeometry x="110" y="380" width="560" height="150" as="geometry" />
        </mxCell>
        <mxCell id="Rqjnc4vH8GLWkwJb9Xeg-8" value="" style="outlineConnect=0;fontColor=#232F3E;gradientColor=none;fillColor=#5A30B5;strokeColor=none;dashed=0;verticalLabelPosition=bottom;verticalAlign=top;align=center;html=1;fontSize=12;fontStyle=0;aspect=fixed;pointerEvents=1;shape=mxgraph.aws4.customer_gateway;" vertex="1" parent="1">
          <mxGeometry x="273.5" y="440" width="80" height="80" as="geometry" />
        </mxCell>
        <mxCell id="Rqjnc4vH8GLWkwJb9Xeg-13" value="" style="outlineConnect=0;fontColor=#232F3E;gradientColor=none;fillColor=#5A30B5;strokeColor=none;dashed=0;verticalLabelPosition=bottom;verticalAlign=top;align=center;html=1;fontSize=12;fontStyle=0;aspect=fixed;pointerEvents=1;shape=mxgraph.aws4.customer_gateway;" vertex="1" parent="1">
          <mxGeometry x="408.5" y="440" width="80" height="80" as="geometry" />
        </mxCell>
        <mxCell id="Rqjnc4vH8GLWkwJb9Xeg-10" value="" style="outlineConnect=0;fontColor=#232F3E;gradientColor=none;fillColor=#5A30B5;strokeColor=none;dashed=0;verticalLabelPosition=bottom;verticalAlign=top;align=center;html=1;fontSize=12;fontStyle=0;aspect=fixed;pointerEvents=1;shape=mxgraph.aws4.customer_gateway;" vertex="1" parent="1">
          <mxGeometry x="546.5" y="440" width="80" height="80" as="geometry" />
        </mxCell>
        <mxCell id="Rqjnc4vH8GLWkwJb9Xeg-12" value="" style="outlineConnect=0;fontColor=#232F3E;gradientColor=none;fillColor=#5A30B5;strokeColor=none;dashed=0;verticalLabelPosition=bottom;verticalAlign=top;align=center;html=1;fontSize=12;fontStyle=0;aspect=fixed;pointerEvents=1;shape=mxgraph.aws4.customer_gateway;" vertex="1" parent="1">
          <mxGeometry x="150" y="440" width="80" height="80" as="geometry" />
        </mxCell>
        <mxCell id="Rqjnc4vH8GLWkwJb9Xeg-22" style="edgeStyle=orthogonalEdgeStyle;rounded=0;orthogonalLoop=1;jettySize=auto;html=1;exitX=0.5;exitY=1;exitDx=0;exitDy=0;fontSize=16;" edge="1" parent="1" source="Rqjnc4vH8GLWkwJb9Xeg-18" target="Rqjnc4vH8GLWkwJb9Xeg-18">
          <mxGeometry relative="1" as="geometry" />
        </mxCell>
        <mxCell id="Rqjnc4vH8GLWkwJb9Xeg-25" value="接入交换机" style="text;html=1;strokeColor=none;fillColor=none;align=center;verticalAlign=middle;whiteSpace=wrap;rounded=0;dashed=1;fontSize=16;" vertex="1" parent="1">
          <mxGeometry x="325" y="390" width="105" height="20" as="geometry" />
        </mxCell>
        <mxCell id="Rqjnc4vH8GLWkwJb9Xeg-29" value="" style="rounded=1;whiteSpace=wrap;html=1;dashed=1;fontSize=16;fillColor=#d5e8d4;strokeColor=#82b366;" vertex="1" parent="1">
          <mxGeometry x="110" y="585" width="570" height="145" as="geometry" />
        </mxCell>
        <mxCell id="Rqjnc4vH8GLWkwJb9Xeg-5" value="" style="points=[[0,0,0],[0.25,0,0],[0.5,0,0],[0.75,0,0],[1,0,0],[0,1,0],[0.25,1,0],[0.5,1,0],[0.75,1,0],[1,1,0],[0,0.25,0],[0,0.5,0],[0,0.75,0],[1,0.25,0],[1,0.5,0],[1,0.75,0]];outlineConnect=0;fontColor=#232F3E;gradientColor=#945DF2;gradientDirection=north;fillColor=#5A30B5;strokeColor=#ffffff;dashed=0;verticalLabelPosition=bottom;verticalAlign=top;align=center;html=1;fontSize=12;fontStyle=0;aspect=fixed;shape=mxgraph.aws4.resourceIcon;resIcon=mxgraph.aws4.cloudfront;" vertex="1" parent="1">
          <mxGeometry x="136" y="640" width="78" height="78" as="geometry" />
        </mxCell>
        <mxCell id="Rqjnc4vH8GLWkwJb9Xeg-6" value="" style="points=[[0,0,0],[0.25,0,0],[0.5,0,0],[0.75,0,0],[1,0,0],[0,1,0],[0.25,1,0],[0.5,1,0],[0.75,1,0],[1,1,0],[0,0.25,0],[0,0.5,0],[0,0.75,0],[1,0.25,0],[1,0.5,0],[1,0.75,0]];outlineConnect=0;fontColor=#232F3E;gradientColor=#945DF2;gradientDirection=north;fillColor=#5A30B5;strokeColor=#ffffff;dashed=0;verticalLabelPosition=bottom;verticalAlign=top;align=center;html=1;fontSize=12;fontStyle=0;aspect=fixed;shape=mxgraph.aws4.resourceIcon;resIcon=mxgraph.aws4.cloudfront;" vertex="1" parent="1">
          <mxGeometry x="246" y="640" width="78" height="78" as="geometry" />
        </mxCell>
        <mxCell id="Rqjnc4vH8GLWkwJb9Xeg-7" value="" style="points=[[0,0,0],[0.25,0,0],[0.5,0,0],[0.75,0,0],[1,0,0],[0,1,0],[0.25,1,0],[0.5,1,0],[0.75,1,0],[1,1,0],[0,0.25,0],[0,0.5,0],[0,0.75,0],[1,0.25,0],[1,0.5,0],[1,0.75,0]];outlineConnect=0;fontColor=#232F3E;gradientColor=#945DF2;gradientDirection=north;fillColor=#5A30B5;strokeColor=#ffffff;dashed=0;verticalLabelPosition=bottom;verticalAlign=top;align=center;html=1;fontSize=12;fontStyle=0;aspect=fixed;shape=mxgraph.aws4.resourceIcon;resIcon=mxgraph.aws4.cloudfront;" vertex="1" parent="1">
          <mxGeometry x="357" y="640" width="78" height="78" as="geometry" />
        </mxCell>
        <mxCell id="Rqjnc4vH8GLWkwJb9Xeg-14" value="" style="points=[[0,0,0],[0.25,0,0],[0.5,0,0],[0.75,0,0],[1,0,0],[0,1,0],[0.25,1,0],[0.5,1,0],[0.75,1,0],[1,1,0],[0,0.25,0],[0,0.5,0],[0,0.75,0],[1,0.25,0],[1,0.5,0],[1,0.75,0]];outlineConnect=0;fontColor=#232F3E;gradientColor=#945DF2;gradientDirection=north;fillColor=#5A30B5;strokeColor=#ffffff;dashed=0;verticalLabelPosition=bottom;verticalAlign=top;align=center;html=1;fontSize=12;fontStyle=0;aspect=fixed;shape=mxgraph.aws4.resourceIcon;resIcon=mxgraph.aws4.cloudfront;" vertex="1" parent="1">
          <mxGeometry x="466" y="640" width="78" height="78" as="geometry" />
        </mxCell>
        <mxCell id="Rqjnc4vH8GLWkwJb9Xeg-15" value="" style="points=[[0,0,0],[0.25,0,0],[0.5,0,0],[0.75,0,0],[1,0,0],[0,1,0],[0.25,1,0],[0.5,1,0],[0.75,1,0],[1,1,0],[0,0.25,0],[0,0.5,0],[0,0.75,0],[1,0.25,0],[1,0.5,0],[1,0.75,0]];outlineConnect=0;fontColor=#232F3E;gradientColor=#945DF2;gradientDirection=north;fillColor=#5A30B5;strokeColor=#ffffff;dashed=0;verticalLabelPosition=bottom;verticalAlign=top;align=center;html=1;fontSize=12;fontStyle=0;aspect=fixed;shape=mxgraph.aws4.resourceIcon;resIcon=mxgraph.aws4.cloudfront;" vertex="1" parent="1">
          <mxGeometry x="576" y="640" width="78" height="78" as="geometry" />
        </mxCell>
        <mxCell id="Rqjnc4vH8GLWkwJb9Xeg-32" value="反向代理" style="text;html=1;strokeColor=none;fillColor=none;align=center;verticalAlign=middle;whiteSpace=wrap;rounded=0;dashed=1;fontSize=16;" vertex="1" parent="1">
          <mxGeometry x="327.5" y="600" width="105" height="20" as="geometry" />
        </mxCell>
        <mxCell id="Rqjnc4vH8GLWkwJb9Xeg-33" value="nginx" style="text;html=1;strokeColor=none;fillColor=none;align=center;verticalAlign=middle;whiteSpace=wrap;rounded=0;dashed=1;fontSize=16;" vertex="1" parent="1">
          <mxGeometry x="150" y="620" width="40" height="20" as="geometry" />
        </mxCell>
        <mxCell id="Rqjnc4vH8GLWkwJb9Xeg-35" value="nginx" style="text;html=1;strokeColor=none;fillColor=none;align=center;verticalAlign=middle;whiteSpace=wrap;rounded=0;dashed=1;fontSize=16;" vertex="1" parent="1">
          <mxGeometry x="265" y="620" width="40" height="20" as="geometry" />
        </mxCell>
        <mxCell id="Rqjnc4vH8GLWkwJb9Xeg-36" value="nginx" style="text;html=1;strokeColor=none;fillColor=none;align=center;verticalAlign=middle;whiteSpace=wrap;rounded=0;dashed=1;fontSize=16;" vertex="1" parent="1">
          <mxGeometry x="374" y="620" width="40" height="20" as="geometry" />
        </mxCell>
        <mxCell id="Rqjnc4vH8GLWkwJb9Xeg-37" value="nginx" style="text;html=1;strokeColor=none;fillColor=none;align=center;verticalAlign=middle;whiteSpace=wrap;rounded=0;dashed=1;fontSize=16;" vertex="1" parent="1">
          <mxGeometry x="485" y="620" width="40" height="20" as="geometry" />
        </mxCell>
        <mxCell id="Rqjnc4vH8GLWkwJb9Xeg-38" value="nginx" style="text;html=1;strokeColor=none;fillColor=none;align=center;verticalAlign=middle;whiteSpace=wrap;rounded=0;dashed=1;fontSize=16;" vertex="1" parent="1">
          <mxGeometry x="595" y="620" width="40" height="20" as="geometry" />
        </mxCell>
        <mxCell id="Rqjnc4vH8GLWkwJb9Xeg-42" value="VRRP " style="text;html=1;strokeColor=none;fillColor=none;align=center;verticalAlign=middle;whiteSpace=wrap;rounded=0;dashed=1;fontSize=16;" vertex="1" parent="1">
          <mxGeometry x="353.5" y="260" width="40" height="20" as="geometry" />
        </mxCell>
      </root>
    </mxGraphModel>
  </diagram>
</mxfile>
